<?xml version="1.0" encoding="UTF-8" ?>
<!--
    This file is part of Nuntiare project.
    The COPYRIGHT file at the top level of this repository
    contains the full copyright notices and license terms.
-->
<svg
    xmlns="http://www.w3.org/2000/svg"
    width="200"
    height="200"
    viewBox="0 0 200 200">
    <path
        d="M0 0h200v200H0z"
        fill="yellow" />
    <path
        d="M 60.967328,20.980982 146.19438,134.40348 V 67.332551 q 0,-22.000959 -4.69924,-28.836213 -4.69923,-6.835256 -19.86495,-7.476064 V 20.980982 h 60.8765 v 10.039292 q -15.37933,0.640736 -20.07857,7.476064 -4.69923,6.835254 -4.69923,28.836213 V 178.19183 h -8.97128 L 53.491266,49.603617 v 79.246233 q 0,22.00095 4.699231,28.83621 4.69923,6.83525 19.864958,7.47606 v 10.03926 H 17.178989 v -10.03926 q 15.379308,-0.64072 20.078538,-7.47606 4.699254,-6.83526 4.699254,-28.83621 V 38.069131 q -2.776833,-4.058446 -7.26246,-5.553639 -4.272051,-1.49529 -12.388896,-1.49529 H 16.965387 V 20.98091 Z"
        fill="black" />
</svg>
