<svg
   xmlns="http://www.w3.org/2000/svg"
   height="24"
   viewBox="0 0 24 24"
   width="24">
  <path
     d="m 8.0365196,0.72598285 c 0.01251,0.153279 -1.7622091,1.52260095 -0.8535161,3.29296895 l 3.0292975,5.521485 -3.3164075,5.8125002 c -1.062277,-0.360622 -2.635318,-0.480762 -4.236328,1.33789 -1.80773698,2.616776 -0.763459,4.509582 -0.111328,5.236328 1.014608,1.268646 3.426509,1.540181 5.091797,-0.472656 1.0266381,-1.153432 1.3313101,-3.165851 1.7500001,-4.546875 0.571085,-1.990074 1.4393104,-3.321402 2.2500004,-4.779297 0.781471,1.388408 1.600918,2.69165 2.148438,4.59961 0.41869,1.381024 0.723362,3.393442 1.75,4.546874 1.665288,2.012838 4.077188,1.741303 5.091797,0.472657 0.65213,-0.726746 1.696408,-2.619552 -0.111329,-5.236328 -1.60101,-1.818652 -3.174051,-1.698513 -4.236328,-1.337891 l -3.216797,-5.6367192 2.929688,-5.33789 c 0.908693,-1.770368 -0.866029,-3.13969 -0.853516,-3.29296895 L 11.640035,7.0404368 Z M 17.393941,16.624421 c 0.591993,-0.0276 1.330181,0.21395 1.81836,0.921875 1.414711,1.905998 0.322403,3.060771 0.02734,3.269531 -1.202939,0.78708 -2.471001,-0.402862 -2.917968,-1.080078 -0.525985,-1.12198 -0.443151,-2.350706 0.25,-2.814453 0.163078,-0.167695 0.467069,-0.280315 0.822265,-0.296875 z M 5.7845655,16.804108 c 0.355196,0.01656 0.659188,0.12918 0.822266,0.296875 0.693151,0.463747 0.775985,1.692474 0.25,2.814454 -0.446967,0.677216 -1.715029,1.867158 -2.917969,1.080078 -0.295059,-0.20876 -1.387367,-1.363534 0.02734,-3.269532 0.488179,-0.707925 1.226366,-0.949478 1.818359,-0.921875 z"/>
</svg>
