<svg
   xmlns="http://www.w3.org/2000/svg"
   height="24"
   viewBox="0 0 24 24"
   width="24">
  <path
     d="M0 0h24v24H0z"
     fill="none"/>
  <path
     d="M 2.3077662,19.206859 H 21.088436 v 1.192638 H 2.3077662 Z"/>
  <g transform="matrix(0.76306014,0,0,1.3105127,0.06072618,-0.26736045)">
    <path
       d="m 7.4135385,9.2937569 q -0.678603,0 -1.0239634,0.2302403 -0.3393015,0.2302403 -0.3393015,0.6786028 0,0.412009 0.272653,0.648308 0.2787119,0.230241 0.7694873,0.230241 0.6119544,0 1.0300223,-0.436245 Q 8.5405041,10.2026 8.5405041,9.5421741 V 9.2937569 Z M 10.727787,8.475798 V 12.34747 H 8.5405041 v -1.005786 q -0.4362447,0.618013 -0.9815507,0.902784 -0.5453059,0.278712 -1.3269112,0.278712 -1.0542581,0 -1.7146842,-0.611954 -0.6543672,-0.618014 -0.6543672,-1.599565 0,-1.1936138 0.8179589,-1.7510377 Q 5.5049676,8.0031995 7.2620646,8.0031995 H 8.5405041 V 7.8335487 q 0,-0.5150111 -0.40595,-0.7513104 -0.4059499,-0.2423582 -1.2663216,-0.2423582 -0.6967798,0 -1.2966164,0.139356 Q 4.9717796,7.118592 4.4567684,7.397304 V 5.7432092 Q 5.1535482,5.5735585 5.856387,5.4887331 q 0.7028388,-0.090884 1.4056776,-0.090884 1.8358634,0 2.6477634,0.7270746 0.817959,0.7210157 0.817959,2.3508743 z"/>
    <path
       d="m 16.368674,10.947852 q 0.69678,0 1.060317,-0.508953 0.369596,-0.5089518 0.369596,-1.4783846 0,-0.9694328 -0.369596,-1.4783851 -0.363537,-0.5089522 -1.060317,-0.5089522 -0.69678,0 -1.072435,0.5150112 -0.369597,0.5089522 -0.369597,1.4723261 0,0.9633738 0.369597,1.4783846 0.375655,0.508953 1.072435,0.508953 z M 14.926642,6.5551092 q 0.448363,-0.5937776 0.993669,-0.8724895 0.545306,-0.2847709 1.254204,-0.2847709 1.254203,0 2.060044,0.9997276 0.805841,0.9936686 0.805841,2.562938 0,1.5692696 -0.805841,2.5689966 -0.805841,0.993669 -2.060044,0.993669 -0.708898,0 -1.254204,-0.278712 -0.545306,-0.284771 -0.993669,-0.878548 v 0.98155 H 12.757536 V 2.9197361 h 2.169106 z"/>
    <path
       d="M 27.135437,5.773504 V 7.5427189 Q 26.693134,7.2397711 26.244771,7.0943562 25.802467,6.9489413 25.32381,6.9489413 q -0.908844,0 -1.417796,0.533188 -0.502893,0.5271291 -0.502893,1.4783851 0,0.9512559 0.502893,1.4844436 0.508952,0.527129 1.417796,0.527129 0.508952,0 0.963374,-0.151473 0.46048,-0.151474 0.848253,-0.448363 v 1.775274 q -0.508952,0.187827 -1.036081,0.278712 -0.52107,0.09694 -1.048199,0.09694 -1.835864,0 -2.871945,-0.939138 -1.036081,-0.945197 -1.036081,-2.6235276 0,-1.6783306 1.036081,-2.6174686 1.036081,-0.945197 2.871945,-0.945197 0.533188,0 1.048199,0.096943 0.52107,0.090884 1.036081,0.2787119 z"/>
  </g>
</svg>
