<svg
   xmlns="http://www.w3.org/2000/svg"
   height="24"
   viewBox="0 0 24 24"
   width="24">
  <path
     d="M0 0h24v24H0z"
     fill="none"/>
  <path
     d="M 2.5396769,19.070085 H 21.320346 v 1.192638 H 2.5396769 Z"/>
  <path
     d="m 5.4287272,12.003155 q -0.5427247,0 -0.8189327,0.296951 -0.2713623,0.296951 -0.2713623,0.875224 0,0.531386 0.2180591,0.836151 0.2229047,0.296952 0.6154108,0.296952 0.4894213,0 0.8237783,-0.562645 0.3343571,-0.570458 0.3343571,-1.422239 v -0.320394 z m 2.6506281,-1.054958 v 4.993465 H 6.3300375 v -1.297206 q -0.3488943,0.797078 -0.7850122,1.16436 -0.4361179,0.359467 -1.0612205,0.359467 -0.8431613,0 -1.3713486,-0.789264 -0.5233416,-0.797079 -0.5233416,-2.063029 0,-1.539456 0.6541769,-2.25839 0.6590228,-0.718934 2.0642917,-0.718934 H 6.3300375 V 10.11986 q 0,-0.6642319 -0.3246655,-0.9689979 -0.3246656,-0.3125796 -1.0127629,-0.3125796 -0.5572617,0 -1.0369916,0.1797336 -0.4797296,0.179733 -0.8916189,0.5392 V 7.4238581 Q 3.6212604,7.2050521 4.183368,7.0956491 4.7454757,6.978432 5.3075832,6.978432 q 1.468264,0 2.1175952,0.93774 0.6541769,0.9299255 0.6541769,3.032025 z"/>
  <path
     d="m 12.590753,14.136514 q 0.557262,0 0.848007,-0.656419 0.295591,-0.656418 0.295591,-1.906738 0,-1.25032 -0.295591,-1.906738 -0.290745,-0.6564179 -0.848007,-0.6564179 -0.557261,0 -0.857698,0.6642329 -0.295592,0.656418 -0.295592,1.898923 0,1.242505 0.295592,1.906738 0.300437,0.656419 0.857698,0.656419 z m -1.15329,-5.665513 q 0.358586,-0.7658209 0.794704,-1.1252879 0.436119,-0.3672815 1.003072,-0.3672815 1.003071,0 1.647557,1.2893925 0.644484,1.281578 0.644484,3.3055329 0,2.023956 -0.644484,3.313348 -0.644486,1.281578 -1.647557,1.281578 -0.566953,0 -1.003072,-0.359467 -0.436118,-0.367282 -0.794704,-1.133102 v 1.265948 H 9.7026826 V 3.7823012 h 1.7347804 z"/>
  <path
     d="M 21.20166,7.4629306 V 9.744764 Q 20.847921,9.3540391 20.489334,9.1664911 20.135595,8.9789431 19.75278,8.9789431 q -0.726863,0 -1.133907,0.6876759 -0.402198,0.679862 -0.402198,1.906738 0,1.226876 0.402198,1.914552 0.407044,0.679862 1.133907,0.679862 0.407043,0 0.770475,-0.195362 0.368277,-0.195362 0.678405,-0.578273 v 2.289648 q -0.407043,0.242249 -0.828624,0.359467 -0.416734,0.125028 -0.838315,0.125028 -1.468264,0 -2.296888,-1.211247 -0.828625,-1.219062 -0.828625,-3.383679 0,-2.1646159 0.828625,-3.3758633 0.828624,-1.2190619 2.296888,-1.2190619 0.426427,0 0.838315,0.1250316 0.416735,0.1172171 0.828624,0.3594669 z"/>
</svg>
